<svg width="20" height="20" viewBox="0 0 20 20" fill="none" xmlns="http://www.w3.org/2000/svg">
<g id="lucide:sun-moon" clip-path="url(#clip0_8579_3683)">
<g id="Group">
<path id="Vector" d="M10 13.3334C10.8841 13.3334 11.7319 12.9822 12.357 12.357C12.9822 11.7319 13.3334 10.8841 13.3334 10C13.3334 9.11597 12.9822 8.26812 12.357 7.643C11.7319 7.01788 10.8841 6.66669 10 6.66669C9.11597 6.66669 8.26812 7.01788 7.643 7.643C7.01788 8.26812 6.66669 9.11597 6.66669 10C6.66669 10.8841 7.01788 11.7319 7.643 12.357C8.26812 12.9822 9.11597 13.3334 10 13.3334V13.3334Z" stroke="#E6A500" stroke-width="2" stroke-linecap="round" stroke-linejoin="round"/>
<path id="Vector_2" d="M14.5834 5.41669L15.8334 4.16669M13.3334 10.3217C12.83 10.6938 12.2098 10.8729 11.5855 10.8264C10.9613 10.7799 10.3744 10.5109 9.93181 10.0682C9.48917 9.62559 9.22012 9.03877 9.1736 8.41451C9.12709 7.79025 9.3062 7.17004 9.67835 6.66669L13.3334 10.3217ZM10 1.66669V3.33335V1.66669ZM10 16.6667V18.3334V16.6667ZM4.16669 4.16669L5.41669 5.41669L4.16669 4.16669ZM14.5834 14.5834L15.8334 15.8334L14.5834 14.5834ZM1.66669 10H3.33335H1.66669ZM16.6667 10H18.3334H16.6667ZM4.16669 15.8334L5.41669 14.5834L4.16669 15.8334Z" stroke="#E6A500" stroke-width="1.5" stroke-linecap="round" stroke-linejoin="round"/>
</g>
</g>
<defs>
<clipPath id="clip0_8579_3683">
<rect width="20" height="20" fill="white"/>
</clipPath>
</defs>
</svg>
